<svg width="231" height="322" viewBox="0 0 231 322" fill="none" xmlns="http://www.w3.org/2000/svg">
<ellipse cx="115.5" cy="158.5" rx="115.5" ry="116.5" fill="#1E293B"/>
<path d="M123.859 95.8125H135.871V195.617C135.871 205.122 134.016 213.195 130.305 219.836C126.594 226.411 121.483 231.424 114.973 234.875C108.527 238.26 101.171 239.953 92.9023 239.953C84.4388 239.953 76.9518 238.456 70.4414 235.461C63.9961 232.466 58.9831 227.941 55.4023 221.887C51.8216 215.767 50.0312 208.052 50.0312 198.742H62.043C62.043 209.029 64.7448 216.776 70.1484 221.984C75.6172 227.193 83.2018 229.797 92.9023 229.797C98.6966 229.797 103.905 228.495 108.527 225.891C113.215 223.286 116.926 219.478 119.66 214.465C122.46 209.387 123.859 203.104 123.859 195.617V95.8125Z" fill="#F8FAFC"/>
<path d="M156.859 67.8125H168.871V167.617C168.871 177.122 167.016 185.195 163.305 191.836C159.594 198.411 154.483 203.424 147.973 206.875C141.527 210.26 134.171 211.953 125.902 211.953C117.439 211.953 109.952 210.456 103.441 207.461C96.9961 204.466 91.9831 199.941 88.4023 193.887C84.8216 187.767 83.0312 180.052 83.0312 170.742H95.043C95.043 181.029 97.7448 188.776 103.148 193.984C108.617 199.193 116.202 201.797 125.902 201.797C131.697 201.797 136.905 200.495 141.527 197.891C146.215 195.286 149.926 191.478 152.66 186.465C155.46 181.387 156.859 175.104 156.859 167.617V67.8125Z" fill="#F8FAFC"/>
</svg>
